<mxfile host="app.diagrams.net" modified="2023-12-13T14:28:09.498Z" agent="Mozilla/5.0 (Windows NT 10.0; Win64; x64; rv:120.0) Gecko/20100101 Firefox/120.0" version="22.1.8" etag="h0ld3RohHeOCPVFXvMVf" type="github">
  <diagram name="Page-1" id="rYbIxNVRNvEQ2pxCFXKR">
    <mxGraphModel>
      <root>
        <mxCell id="0" />
        <mxCell id="1" parent="0" />
      </root>
    </mxGraphModel>
  </diagram>
</mxfile>
